Coordinates
version=1
nRows=21
nColumns=12
inDegrees=yes

Units are S.I. units (second, meters, Newtons, ...)
Angles are in degrees

endheader
time	SC_y	SC_z	SC_x	AC_y	AC_z	AC_x	GH_y	GH_z	GH_yy	EL_x	PS_y
       0.0              -24.51         -3.957          41.18          51.03          9.443          19.14          178.4          59.15          174.4          97.65          152.6
   0.03975              -24.52         -3.951          41.17          51.03          9.439          19.14          178.4          59.14          174.4          97.64          152.6
    0.0795              -24.52         -3.946          41.17          51.02          9.434          19.14          178.4          59.12          174.4          97.64          152.6
    0.1192              -24.52          -3.94          41.16          51.02           9.43          19.14          178.3          59.11          174.3          97.63          152.6
     0.159              -24.52         -3.933          41.15          51.02          9.425          19.14          178.3           59.1          174.3          97.63          152.6
    0.1987              -24.53         -3.926          41.15          51.02           9.42          19.14          178.3          59.08          174.3          97.62          152.6
    0.2385              -24.53         -3.919          41.14          51.01          9.414          19.14          178.2          59.07          174.2          97.62          152.6
    0.2782              -24.53         -3.911          41.13          51.01          9.408          19.13          178.2          59.05          174.2          97.61          152.6
     0.318              -24.54         -3.903          41.12          51.01          9.402          19.13          178.2          59.04          174.1          97.61          152.6
    0.3577              -24.54         -3.894          41.12           51.0          9.395          19.13          178.1          59.02          174.1           97.6          152.5
    0.3975              -24.55         -3.884          41.11           51.0          9.387          19.13          178.1           59.0          174.0          97.59          152.5
    0.4372              -24.55         -3.874           41.1           51.0           9.38          19.12          178.0          58.98          174.0          97.59          152.5
     0.477              -24.56         -3.863          41.08          50.99          9.371          19.12          178.0          58.96          173.9          97.58          152.5
    0.5167              -24.56          -3.85          41.07          50.99          9.362          19.12          177.9          58.93          173.9          97.57          152.5
    0.5565              -24.57         -3.837          41.06          50.98          9.352          19.12          177.9           58.9          173.8          97.56          152.5
    0.5962              -24.57         -3.823          41.05          50.98          9.341          19.11          177.8          58.88          173.7          97.55          152.5
     0.636              -24.58         -3.808          41.03          50.97          9.329          19.11          177.7          58.84          173.7          97.54          152.4
    0.6757              -24.59         -3.791          41.01          50.96          9.317           19.1          177.6          58.81          173.6          97.52          152.4
    0.7155               -24.6         -3.772           41.0          50.96          9.303           19.1          177.5          58.77          173.5          97.51          152.4
    0.7552               -24.6         -3.752          40.98          50.95          9.287           19.1          177.5          58.73          173.4          97.49          152.4
     0.795              -24.61          -3.73          40.96          50.94          9.271          19.09          177.3          58.69          173.3          97.48          152.3
